<svg version="1.1" xmlns="http://www.w3.org/2000/svg" xmlns:xlink="http://www.w3.org/1999/xlink" width="55" height="54" viewBox="0 0 55 54">
<g id="Forma-1">
<path id="Forma-1-fill" d="M50.380,33.312 C50.831,38.313 52.024,42.020 53.750,43.771 C54.018,44.043 54.085,44.460 53.916,44.805 C53.765,45.112 53.456,45.302 53.125,45.302 C53.084,45.302 53.043,45.298 53.001,45.293 C52.759,45.258 47.258,44.446 42.387,42.217 C38.195,47.351 31.498,50.681 23.965,50.681 C20.723,50.681 17.591,50.074 14.648,48.879 C9.449,51.903 2.307,52.947 1.997,52.991 C1.957,52.996 1.915,52.999 1.875,52.999 C1.543,52.999 1.235,52.810 1.084,52.502 C0.914,52.158 0.981,51.741 1.250,51.469 C2.976,49.718 4.169,46.011 4.619,41.010 C2.244,37.629 0.991,33.723 0.991,29.689 C0.991,22.745 4.703,16.581 10.407,12.757 C14.247,5.609 22.312,1.000 31.034,1.000 C43.703,1.000 54.008,10.417 54.008,21.991 C54.008,26.025 52.755,29.932 50.380,33.312 zM46.030,35.528 C46.011,35.586 45.994,35.644 45.975,35.702 C45.890,35.962 45.798,36.220 45.702,36.476 C45.642,36.634 45.579,36.792 45.516,36.950 C45.834,36.772 46.053,36.523 46.030,35.528 zM12.798,13.378 C12.444,13.577 12.096,13.788 11.754,14.007 C6.318,17.487 2.758,23.217 2.758,29.689 C2.758,33.447 3.962,37.090 6.240,40.222 C6.367,40.397 6.427,40.613 6.409,40.830 C6.149,43.979 5.497,47.968 3.909,50.813 C6.484,50.267 10.852,49.117 14.123,47.113 C15.706,46.122 17.482,44.967 17.917,44.622 C18.184,44.248 18.694,44.136 19.090,44.379 C19.354,44.540 19.521,44.837 19.521,45.150 C19.524,45.657 19.521,45.805 16.575,47.678 C18.934,48.477 21.411,48.888 23.965,48.888 C31.249,48.888 37.686,45.545 41.505,40.466 C41.747,40.145 41.975,39.817 42.194,39.484 C42.272,39.367 42.346,39.246 42.422,39.127 C42.603,38.837 42.776,38.545 42.939,38.249 C42.984,38.168 43.033,38.088 43.077,38.006 C43.266,37.650 43.439,37.289 43.603,36.925 C43.659,36.799 43.715,36.672 43.769,36.544 C43.916,36.198 44.054,35.848 44.178,35.494 C44.205,35.419 44.229,35.344 44.255,35.268 C44.375,34.910 44.482,34.547 44.578,34.183 C44.609,34.064 44.640,33.945 44.669,33.826 C44.768,33.420 44.858,33.012 44.927,32.600 C44.933,32.570 44.935,32.539 44.941,32.509 C45.005,32.114 45.053,31.716 45.090,31.316 C45.101,31.205 45.110,31.094 45.118,30.983 C45.150,30.553 45.172,30.123 45.172,29.689 C45.172,27.704 44.838,25.789 44.218,23.985 C41.529,16.175 33.467,10.489 23.966,10.489 C23.470,10.489 22.977,10.511 22.487,10.542 C22.363,10.550 22.240,10.557 22.117,10.567 C21.644,10.604 21.173,10.651 20.706,10.717 C20.617,10.729 20.530,10.747 20.441,10.760 C20.054,10.819 19.671,10.889 19.289,10.966 C19.141,10.997 18.992,11.026 18.846,11.060 C18.421,11.155 18.002,11.260 17.585,11.380 C17.437,11.423 17.292,11.470 17.145,11.515 C16.825,11.614 16.507,11.720 16.191,11.833 C16.051,11.882 15.909,11.930 15.771,11.983 C15.372,12.134 14.979,12.299 14.590,12.474 C14.450,12.538 14.310,12.603 14.170,12.670 C13.788,12.851 13.409,13.039 13.038,13.243 C12.956,13.286 12.878,13.334 12.798,13.378 zM46.888,31.049 C46.880,31.164 46.869,31.279 46.859,31.394 C46.830,31.718 46.794,32.040 46.749,32.359 C46.731,32.485 46.716,32.613 46.696,32.739 C46.692,32.759 46.687,32.778 46.684,32.798 C46.831,32.387 46.958,32.057 47.000,31.999 C46.960,31.662 46.923,31.348 46.888,31.049 zM36.336,29.689 C36.336,30.185 35.940,30.586 35.452,30.586 C35.452,30.586 13.362,30.586 13.362,30.586 C12.874,30.586 12.478,30.185 12.478,29.689 C12.478,29.193 12.874,28.793 13.362,28.793 C13.362,28.793 35.452,28.793 35.452,28.793 C35.940,28.793 36.336,29.193 36.336,29.689 zM13.362,35.068 C13.362,35.068 35.452,35.068 35.452,35.068 C35.940,35.068 36.336,35.469 36.336,35.965 C36.336,36.461 35.940,36.861 35.452,36.861 C35.452,36.861 13.362,36.861 13.362,36.861 C12.874,36.861 12.478,36.461 12.478,35.965 C12.478,35.469 12.874,35.068 13.362,35.068 zM30.592,24.310 C30.592,24.310 18.222,24.310 18.222,24.310 C17.734,24.310 17.338,23.909 17.338,23.413 C17.338,22.917 17.734,22.516 18.222,22.516 C18.222,22.516 30.592,22.516 30.592,22.516 C31.080,22.516 31.476,22.917 31.476,23.413 C31.476,23.909 31.080,24.310 30.592,24.310 z" fill="#000000"/>
<path id="Forma-1-stroke" d="M50.812,33.433 C51.271,38.531 52.487,42.309 54.245,44.093 C54.518,44.371 54.587,44.795 54.414,45.147 C54.260,45.461 53.946,45.654 53.608,45.654 C53.567,45.654 53.525,45.650 53.482,45.644 C53.236,45.610 47.630,44.782 42.668,42.510 C38.397,47.742 31.574,51.136 23.899,51.136 C20.595,51.136 17.404,50.518 14.406,49.299 C9.109,52.382 1.831,53.446 1.516,53.490 C1.475,53.496 1.433,53.499 1.391,53.499 C1.054,53.499 0.739,53.307 0.585,52.993 C0.413,52.642 0.481,52.217 0.755,51.940 C2.513,50.155 3.728,46.376 4.187,41.279 C1.767,37.833 0.491,33.852 0.491,29.741 C0.491,22.664 4.273,16.380 10.084,12.483 C13.997,5.198 22.214,0.500 31.101,0.500 C44.008,0.500 54.509,10.098 54.509,21.895 C54.509,26.006 53.232,29.988 50.812,33.433 zM46.379,35.692 C46.361,35.751 46.343,35.811 46.324,35.870 C46.237,36.134 46.143,36.397 46.045,36.658 C45.984,36.820 45.920,36.981 45.856,37.142 C46.180,36.960 46.403,36.706 46.379,35.692 zM12.521,13.116 C12.160,13.319 11.806,13.533 11.457,13.757 C5.918,17.304 2.292,23.144 2.292,29.741 C2.292,33.571 3.518,37.284 5.839,40.476 C5.968,40.655 6.030,40.875 6.012,41.096 C5.746,44.306 5.082,48.371 3.464,51.271 C6.087,50.714 10.538,49.543 13.870,47.500 C15.484,46.490 17.293,45.313 17.736,44.961 C18.008,44.579 18.527,44.466 18.932,44.713 C19.200,44.878 19.370,45.180 19.371,45.499 C19.374,46.015 19.370,46.166 16.369,48.076 C18.772,48.890 21.296,49.309 23.899,49.309 C31.320,49.309 37.878,45.902 41.769,40.725 C42.016,40.398 42.248,40.063 42.472,39.724 C42.551,39.604 42.626,39.482 42.703,39.360 C42.888,39.065 43.064,38.767 43.231,38.465 C43.277,38.383 43.326,38.301 43.371,38.217 C43.564,37.855 43.739,37.487 43.907,37.116 C43.964,36.987 44.021,36.858 44.076,36.727 C44.225,36.375 44.367,36.018 44.493,35.657 C44.520,35.581 44.545,35.504 44.571,35.427 C44.694,35.062 44.802,34.692 44.901,34.321 C44.932,34.200 44.964,34.079 44.993,33.957 C45.094,33.543 45.186,33.127 45.256,32.708 C45.262,32.677 45.264,32.645 45.270,32.615 C45.335,32.213 45.384,31.807 45.422,31.399 C45.433,31.286 45.443,31.173 45.451,31.060 C45.483,30.622 45.506,30.183 45.506,29.741 C45.506,27.718 45.165,25.766 44.533,23.927 C41.794,15.967 33.579,10.172 23.899,10.172 C23.394,10.172 22.892,10.194 22.392,10.225 C22.266,10.233 22.140,10.241 22.015,10.251 C21.533,10.289 21.054,10.337 20.578,10.404 C20.487,10.417 20.398,10.434 20.308,10.448 C19.914,10.508 19.523,10.579 19.134,10.658 C18.983,10.689 18.832,10.719 18.682,10.753 C18.250,10.850 17.822,10.958 17.398,11.079 C17.247,11.123 17.100,11.171 16.950,11.217 C16.623,11.318 16.299,11.426 15.978,11.541 C15.835,11.592 15.691,11.640 15.549,11.694 C15.143,11.849 14.743,12.017 14.346,12.195 C14.203,12.260 14.061,12.326 13.919,12.394 C13.529,12.579 13.143,12.771 12.765,12.978 C12.682,13.023 12.602,13.071 12.521,13.116 zM47.254,31.127 C47.245,31.244 47.235,31.361 47.224,31.479 C47.195,31.809 47.158,32.137 47.112,32.462 C47.094,32.591 47.078,32.721 47.058,32.849 C47.055,32.870 47.049,32.889 47.046,32.910 C47.196,32.490 47.325,32.154 47.368,32.096 C47.327,31.751 47.289,31.432 47.254,31.127 zM36.503,29.741 C36.503,30.246 36.099,30.655 35.602,30.655 C35.602,30.655 13.095,30.655 13.095,30.655 C12.598,30.655 12.195,30.246 12.195,29.741 C12.195,29.235 12.598,28.827 13.095,28.827 C13.095,28.827 35.602,28.827 35.602,28.827 C36.099,28.827 36.503,29.235 36.503,29.741 zM13.095,35.224 C13.095,35.224 35.602,35.224 35.602,35.224 C36.099,35.224 36.503,35.632 36.503,36.137 C36.503,36.642 36.099,37.051 35.602,37.051 C35.602,37.051 13.095,37.051 13.095,37.051 C12.598,37.051 12.195,36.642 12.195,36.137 C12.195,35.632 12.598,35.224 13.095,35.224 zM30.651,24.258 C30.651,24.258 18.047,24.258 18.047,24.258 C17.550,24.258 17.146,23.849 17.146,23.344 C17.146,22.839 17.550,22.430 18.047,22.430 C18.047,22.430 30.651,22.430 30.651,22.430 C31.148,22.430 31.551,22.839 31.551,23.344 C31.551,23.849 31.148,24.258 30.651,24.258 z" fill="none" stroke="#FFE401" stroke-width="1"/>
</g>
</svg>