<svg version="1.1" xmlns="http://www.w3.org/2000/svg" xmlns:xlink="http://www.w3.org/1999/xlink" width="57" height="57" viewBox="0 0 57 57">
<g id="Forma-1">
<path id="Forma-1-fill" d="M55.384,5.199 C56.251,4.197 56.196,2.677 55.259,1.741 C54.321,0.803 52.802,0.748 51.799,1.615 C51.799,1.615 34.876,16.290 34.771,16.394 C32.129,19.000 29.318,21.418 26.358,23.637 C26.358,23.637 10.577,7.863 10.577,7.863 C10.577,7.863 10.021,5.541 10.021,5.541 C9.974,5.344 9.847,5.175 9.671,5.075 C9.671,5.075 5.456,2.666 5.456,2.666 C5.168,2.502 4.806,2.550 4.572,2.784 C4.572,2.784 2.765,4.591 2.765,4.591 C2.531,4.825 2.483,5.186 2.647,5.473 C2.647,5.473 5.055,9.687 5.055,9.687 C5.156,9.863 5.324,9.989 5.521,10.037 C5.521,10.037 7.846,10.594 7.846,10.594 C7.846,10.594 23.170,25.910 23.170,25.910 C20.820,27.502 18.387,28.977 15.877,30.322 C9.694,33.633 4.645,38.620 1.274,44.741 C0.953,45.323 0.888,45.994 1.089,46.630 C1.289,47.262 1.745,47.790 2.341,48.080 C2.341,48.080 2.341,48.080 2.341,48.080 C2.683,48.248 3.046,48.327 3.403,48.327 C4.261,48.327 5.089,47.871 5.530,47.070 C8.448,41.776 12.819,37.462 18.169,34.596 C21.102,33.025 23.936,31.288 26.661,29.399 C26.661,29.399 27.588,30.326 27.588,30.326 C25.707,33.035 23.958,35.886 22.387,38.813 C19.521,44.160 15.206,48.528 9.909,51.446 C8.773,52.071 8.328,53.471 8.897,54.633 C9.187,55.229 9.716,55.684 10.347,55.884 C10.589,55.961 10.837,55.999 11.082,55.999 C11.482,55.999 11.878,55.898 12.240,55.699 C18.363,52.331 23.351,47.284 26.665,41.104 C28.005,38.604 29.488,36.155 31.078,33.813 C31.078,33.813 31.712,34.447 31.712,34.447 C31.712,34.447 29.797,36.361 29.797,36.361 C29.511,36.647 29.511,37.112 29.797,37.398 C29.941,37.542 30.128,37.613 30.316,37.613 C30.504,37.613 30.692,37.542 30.835,37.398 C30.835,37.398 31.261,36.972 31.261,36.972 C31.379,37.697 31.718,38.366 32.248,38.896 C32.248,38.896 46.408,53.049 46.408,53.049 C47.324,53.965 48.527,54.423 49.731,54.423 C50.934,54.423 52.137,53.965 53.054,53.049 C53.054,53.049 53.054,53.049 53.054,53.049 C54.886,51.218 54.886,48.238 53.054,46.407 C53.054,46.407 38.893,32.254 38.893,32.254 C38.364,31.724 37.695,31.384 36.969,31.267 C36.969,31.267 37.395,30.841 37.395,30.841 C37.682,30.555 37.682,30.090 37.395,29.804 C37.109,29.517 36.644,29.517 36.357,29.804 C36.357,29.804 34.443,31.718 34.443,31.718 C34.443,31.718 33.354,30.629 33.354,30.629 C35.575,27.668 38.014,24.835 40.620,22.198 C40.720,22.097 55.384,5.199 55.384,5.199 zM30.936,28.213 C33.125,25.330 35.520,22.563 38.071,19.969 C38.071,19.969 39.424,21.320 39.424,21.320 C36.877,23.911 34.489,26.684 32.305,29.581 C32.305,29.581 30.936,28.213 30.936,28.213 zM42.767,17.539 L42.089,15.941 C42.089,15.941 54.533,3.503 54.533,3.503 C54.541,3.764 54.456,4.029 54.274,4.239 C54.274,4.239 42.767,17.539 42.767,17.539 zM52.759,2.725 C52.970,2.543 53.234,2.457 53.495,2.465 C53.495,2.465 40.701,15.253 40.701,15.253 C40.490,15.465 40.428,15.783 40.545,16.058 C40.545,16.058 41.697,18.776 41.697,18.776 L40.425,20.246 L36.745,16.567 C36.745,16.567 52.759,2.725 52.759,2.725 zM8.737,9.409 C8.642,9.314 8.521,9.247 8.390,9.215 C8.390,9.215 6.172,8.683 6.172,8.683 L4.199,5.232 L5.214,4.218 L8.667,6.191 C8.667,6.191 9.197,8.406 9.197,8.406 C9.229,8.538 9.296,8.658 9.392,8.754 C9.392,8.754 25.162,24.517 25.162,24.517 C24.908,24.700 24.653,24.882 24.397,25.062 C24.397,25.062 8.737,9.409 8.737,9.409 zM17.475,33.303 C11.875,36.303 7.300,40.819 4.244,46.362 C3.997,46.810 3.444,46.987 2.985,46.762 C2.985,46.762 2.985,46.762 2.985,46.762 C2.745,46.645 2.569,46.442 2.489,46.188 C2.410,45.938 2.435,45.675 2.560,45.448 C5.794,39.576 10.638,34.792 16.570,31.615 C23.579,27.860 30.001,23.137 35.671,17.569 C35.671,17.569 37.025,18.923 37.025,18.923 C31.223,24.625 24.649,29.460 17.475,33.303 zM28.635,27.988 C28.635,27.988 33.405,32.755 33.405,32.755 L32.750,33.410 C32.750,33.410 27.878,28.540 27.878,28.540 C28.131,28.358 28.384,28.173 28.635,27.988 zM25.371,40.411 C22.192,46.341 17.406,51.183 11.532,54.414 C11.304,54.539 11.040,54.565 10.791,54.486 C10.537,54.406 10.333,54.229 10.216,53.989 C9.992,53.531 10.168,52.978 10.617,52.731 C16.164,49.676 20.681,45.103 23.681,39.507 C25.183,36.707 26.851,33.978 28.643,31.380 C28.643,31.380 30.022,32.758 30.022,32.758 C28.344,35.212 26.779,37.783 25.371,40.411 z" fill="#000000"/>
<path id="Forma-1-stroke" d="M55.864,4.775 C56.747,3.755 56.691,2.208 55.737,1.254 C54.783,0.299 53.236,0.243 52.215,1.126 C52.215,1.126 34.990,16.068 34.883,16.174 C32.194,18.828 29.333,21.290 26.320,23.549 C26.320,23.549 10.257,7.488 10.257,7.488 C10.257,7.488 9.691,5.124 9.691,5.124 C9.643,4.923 9.514,4.751 9.335,4.649 C9.335,4.649 5.044,2.196 5.044,2.196 C4.752,2.029 4.383,2.079 4.145,2.317 C4.145,2.317 2.305,4.156 2.305,4.156 C2.067,4.394 2.018,4.762 2.185,5.055 C2.185,5.055 4.637,9.345 4.637,9.345 C4.739,9.524 4.911,9.653 5.111,9.701 C5.111,9.701 7.477,10.268 7.477,10.268 C7.477,10.268 23.074,25.863 23.074,25.863 C20.683,27.484 18.207,28.986 15.651,30.355 C9.358,33.727 4.219,38.804 0.788,45.036 C0.461,45.629 0.395,46.312 0.600,46.960 C0.803,47.603 1.268,48.141 1.873,48.436 C1.873,48.436 1.873,48.436 1.873,48.436 C2.222,48.607 2.591,48.688 2.955,48.688 C3.828,48.688 4.671,48.223 5.120,47.407 C8.090,42.017 12.539,37.625 17.984,34.707 C20.970,33.107 23.854,31.338 26.628,29.415 C26.628,29.415 27.572,30.359 27.572,30.359 C25.657,33.117 23.877,36.020 22.278,39.001 C19.361,44.444 14.969,48.892 9.577,51.863 C8.420,52.499 7.968,53.925 8.547,55.109 C8.842,55.715 9.381,56.179 10.023,56.382 C10.270,56.460 10.521,56.499 10.771,56.499 C11.179,56.499 11.581,56.396 11.949,56.194 C18.182,52.764 23.259,47.626 26.632,41.334 C27.996,38.788 29.506,36.295 31.124,33.910 C31.124,33.910 31.769,34.555 31.769,34.555 C31.769,34.555 29.821,36.504 29.821,36.504 C29.529,36.795 29.529,37.268 29.821,37.560 C29.966,37.706 30.157,37.779 30.349,37.779 C30.540,37.779 30.731,37.706 30.877,37.560 C30.877,37.560 31.311,37.126 31.311,37.126 C31.430,37.864 31.776,38.545 32.315,39.085 C32.315,39.085 46.728,53.496 46.728,53.496 C47.660,54.428 48.885,54.895 50.110,54.895 C51.335,54.895 52.559,54.428 53.492,53.496 C53.492,53.496 53.492,53.496 53.492,53.496 C55.357,51.631 55.357,48.597 53.492,46.733 C53.492,46.733 39.079,32.322 39.079,32.322 C38.540,31.782 37.859,31.437 37.121,31.317 C37.121,31.317 37.554,30.884 37.554,30.884 C37.846,30.592 37.846,30.119 37.554,29.828 C37.262,29.536 36.789,29.536 36.498,29.828 C36.498,29.828 34.549,31.776 34.549,31.776 C34.549,31.776 33.440,30.668 33.440,30.668 C35.701,27.653 38.184,24.769 40.837,22.084 C40.939,21.980 55.864,4.775 55.864,4.775 zM30.980,28.208 C33.207,25.273 35.645,22.455 38.242,19.814 C38.242,19.814 39.619,21.190 39.619,21.190 C37.026,23.827 34.596,26.651 32.373,29.601 C32.373,29.601 30.980,28.208 30.980,28.208 zM43.022,17.340 L42.332,15.713 C42.332,15.713 54.998,3.048 54.998,3.048 C55.006,3.314 54.919,3.584 54.734,3.798 C54.734,3.798 43.022,17.340 43.022,17.340 zM53.192,2.256 C53.407,2.071 53.676,1.984 53.942,1.992 C53.942,1.992 40.919,15.013 40.919,15.013 C40.704,15.228 40.641,15.552 40.760,15.832 C40.760,15.832 41.932,18.599 41.932,18.599 L40.638,20.096 L36.892,16.350 C36.892,16.350 53.192,2.256 53.192,2.256 zM8.385,9.062 C8.287,8.965 8.165,8.897 8.030,8.864 C8.030,8.864 5.774,8.323 5.774,8.323 L3.765,4.809 L4.798,3.777 L8.313,5.785 C8.313,5.785 8.853,8.040 8.853,8.040 C8.885,8.175 8.953,8.297 9.051,8.395 C9.051,8.395 25.103,24.444 25.103,24.444 C24.844,24.631 24.584,24.816 24.324,25.000 C24.324,25.000 8.385,9.062 8.385,9.062 zM17.278,33.390 C11.578,36.445 6.921,41.043 3.811,46.687 C3.559,47.143 2.996,47.323 2.529,47.094 C2.529,47.094 2.529,47.094 2.529,47.094 C2.286,46.975 2.106,46.768 2.024,46.509 C1.944,46.255 1.970,45.988 2.097,45.756 C5.388,39.778 10.319,34.906 16.357,31.672 C23.491,27.849 30.028,23.040 35.799,17.370 C35.799,17.370 37.178,18.749 37.178,18.749 C31.272,24.554 24.580,29.477 17.278,33.390 zM28.638,27.979 C28.638,27.979 33.492,32.833 33.492,32.833 L32.826,33.499 C32.826,33.499 27.867,28.541 27.867,28.541 C28.125,28.355 28.382,28.167 28.638,27.979 zM25.315,40.628 C22.079,46.665 17.208,51.595 11.229,54.885 C10.997,55.013 10.729,55.038 10.475,54.958 C10.216,54.877 10.009,54.697 9.890,54.453 C9.661,53.986 9.840,53.423 10.298,53.171 C15.943,50.061 20.541,45.405 23.595,39.707 C25.124,36.856 26.822,34.078 28.646,31.432 C28.646,31.432 30.049,32.835 30.049,32.835 C28.341,35.334 26.749,37.952 25.315,40.628 z" fill="none" stroke="#FFE401" stroke-width="1"/>
</g>
</svg>