<svg version="1.1" xmlns="http://www.w3.org/2000/svg" xmlns:xlink="http://www.w3.org/1999/xlink" width="42" height="58" viewBox="0 0 42 58">
<g id="Shape-1">
<path id="Shape-1-fill" d="M38.194,56.999 C38.194,56.999 3.806,56.999 3.806,56.999 C2.259,56.999 1.000,55.724 1.000,54.157 C1.000,54.157 1.000,11.583 1.000,11.583 C1.000,11.572 1.001,11.562 1.001,11.552 C1.002,11.542 1.002,11.531 1.003,11.520 C1.005,11.483 1.010,11.445 1.016,11.409 C1.017,11.407 1.017,11.406 1.017,11.404 C1.025,11.364 1.036,11.326 1.049,11.288 C1.051,11.281 1.054,11.274 1.057,11.267 C1.070,11.231 1.085,11.196 1.102,11.162 C1.103,11.160 1.104,11.158 1.105,11.156 C1.124,11.120 1.145,11.087 1.168,11.054 C1.173,11.047 1.179,11.040 1.184,11.033 C1.208,11.000 1.234,10.969 1.262,10.941 C1.262,10.941 1.262,10.941 1.262,10.941 C1.262,10.941 10.814,1.265 10.814,1.265 C10.815,1.264 10.815,1.264 10.815,1.264 C10.843,1.236 10.874,1.210 10.905,1.186 C10.912,1.180 10.919,1.175 10.927,1.170 C10.959,1.146 10.992,1.125 11.026,1.106 C11.029,1.105 11.031,1.104 11.033,1.103 C11.066,1.085 11.101,1.070 11.136,1.057 C11.143,1.054 11.150,1.051 11.157,1.049 C11.194,1.036 11.233,1.025 11.273,1.017 C11.273,1.017 11.274,1.017 11.275,1.016 C11.311,1.009 11.349,1.004 11.387,1.002 C11.397,1.002 11.407,1.001 11.417,1.001 C11.427,1.001 11.437,0.999 11.448,0.999 C11.448,0.999 38.194,0.999 38.194,0.999 C39.741,0.999 41.000,2.274 41.000,3.841 C41.000,3.841 41.000,54.157 41.000,54.157 C41.000,55.724 39.741,56.999 38.194,56.999 zM39.209,3.841 C39.209,3.275 38.754,2.813 38.194,2.813 C38.194,2.813 12.343,2.813 12.343,2.813 C12.343,2.813 12.343,9.647 12.343,9.647 C12.343,11.214 11.085,12.489 9.537,12.489 C9.537,12.489 2.791,12.489 2.791,12.489 C2.791,12.489 2.791,54.157 2.791,54.157 C2.791,54.724 3.246,55.185 3.806,55.185 C3.806,55.185 38.194,55.185 38.194,55.185 C38.754,55.185 39.209,54.724 39.209,54.157 C39.209,54.157 39.209,3.841 39.209,3.841 zM29.119,49.259 C26.255,49.259 23.925,46.898 23.925,43.997 C23.925,41.096 26.255,38.736 29.119,38.736 C31.983,38.736 34.313,41.096 34.313,43.997 C34.313,46.898 31.983,49.259 29.119,49.259 zM29.119,40.550 C27.243,40.550 25.716,42.097 25.716,43.997 C25.716,45.898 27.243,47.444 29.119,47.444 C30.996,47.444 32.522,45.898 32.522,43.997 C32.522,42.097 30.996,40.550 29.119,40.550 zM29.119,45.388 C28.362,45.388 27.746,44.764 27.746,43.997 C27.746,43.230 28.362,42.606 29.119,42.606 C29.876,42.606 30.493,43.230 30.493,43.997 C30.493,44.764 29.876,45.388 29.119,45.388 zM32.463,35.712 C32.463,35.712 9.537,35.712 9.537,35.712 C9.043,35.712 8.642,35.306 8.642,34.805 C8.642,34.304 9.043,33.898 9.537,33.898 C9.537,33.898 32.463,33.898 32.463,33.898 C32.957,33.898 33.358,34.304 33.358,34.805 C33.358,35.306 32.957,35.712 32.463,35.712 zM32.463,30.874 C32.463,30.874 9.537,30.874 9.537,30.874 C9.043,30.874 8.642,30.468 8.642,29.967 C8.642,29.466 9.043,29.060 9.537,29.060 C9.537,29.060 32.463,29.060 32.463,29.060 C32.957,29.060 33.358,29.466 33.358,29.967 C33.358,30.468 32.957,30.874 32.463,30.874 zM32.463,26.036 C32.463,26.036 9.537,26.036 9.537,26.036 C9.043,26.036 8.642,25.630 8.642,25.129 C8.642,24.628 9.043,24.222 9.537,24.222 C9.537,24.222 32.463,24.222 32.463,24.222 C32.957,24.222 33.358,24.628 33.358,25.129 C33.358,25.630 32.957,26.036 32.463,26.036 zM32.463,21.198 C32.463,21.198 9.537,21.198 9.537,21.198 C9.043,21.198 8.642,20.792 8.642,20.291 C8.642,19.789 9.043,19.384 9.537,19.384 C9.537,19.384 32.463,19.384 32.463,19.384 C32.957,19.384 33.358,19.789 33.358,20.291 C33.358,20.792 32.957,21.198 32.463,21.198 zM32.463,16.360 C32.463,16.360 9.537,16.360 9.537,16.360 C9.043,16.360 8.642,15.954 8.642,15.453 C8.642,14.952 9.043,14.546 9.537,14.546 C9.537,14.546 32.463,14.546 32.463,14.546 C32.957,14.546 33.358,14.952 33.358,15.453 C33.358,15.954 32.957,16.360 32.463,16.360 zM9.537,40.671 C9.537,40.671 21.000,40.671 21.000,40.671 C21.495,40.671 21.895,41.077 21.895,41.578 C21.895,42.080 21.495,42.485 21.000,42.485 C21.000,42.485 9.537,42.485 9.537,42.485 C9.043,42.485 8.642,42.080 8.642,41.578 C8.642,41.077 9.043,40.671 9.537,40.671 zM9.537,45.509 C9.537,45.509 21.000,45.509 21.000,45.509 C21.495,45.509 21.895,45.915 21.895,46.416 C21.895,46.917 21.495,47.323 21.000,47.323 C21.000,47.323 9.537,47.323 9.537,47.323 C9.043,47.323 8.642,46.917 8.642,46.416 C8.642,45.915 9.043,45.509 9.537,45.509 z" fill="#000000"/>
<path id="Shape-1-stroke" d="M38.624,57.499 C38.624,57.499 3.376,57.499 3.376,57.499 C1.790,57.499 0.500,56.201 0.500,54.606 C0.500,54.606 0.500,11.272 0.500,11.272 C0.500,11.261 0.501,11.251 0.501,11.241 C0.502,11.230 0.502,11.219 0.503,11.208 C0.506,11.170 0.510,11.132 0.517,11.095 C0.517,11.093 0.517,11.092 0.518,11.090 C0.526,11.049 0.537,11.010 0.550,10.972 C0.553,10.964 0.555,10.957 0.558,10.950 C0.572,10.913 0.587,10.878 0.604,10.844 C0.606,10.842 0.607,10.839 0.608,10.837 C0.627,10.801 0.649,10.767 0.672,10.734 C0.678,10.726 0.683,10.719 0.689,10.712 C0.713,10.679 0.740,10.647 0.768,10.619 C0.768,10.619 0.769,10.618 0.769,10.618 C0.769,10.618 10.560,0.769 10.560,0.769 C10.560,0.769 10.560,0.769 10.560,0.769 C10.589,0.741 10.620,0.714 10.653,0.689 C10.660,0.684 10.667,0.678 10.675,0.673 C10.708,0.649 10.741,0.627 10.777,0.608 C10.779,0.607 10.782,0.606 10.784,0.605 C10.818,0.587 10.853,0.571 10.890,0.558 C10.897,0.555 10.904,0.552 10.911,0.550 C10.949,0.536 10.989,0.525 11.029,0.517 C11.030,0.517 11.031,0.517 11.031,0.517 C11.069,0.509 11.108,0.505 11.147,0.502 C11.157,0.502 11.167,0.501 11.178,0.501 C11.188,0.501 11.198,0.499 11.209,0.499 C11.209,0.499 38.624,0.499 38.624,0.499 C40.210,0.499 41.500,1.797 41.500,3.392 C41.500,3.392 41.500,54.606 41.500,54.606 C41.500,56.201 40.210,57.499 38.624,57.499 zM39.664,3.392 C39.664,2.815 39.197,2.346 38.624,2.346 C38.624,2.346 12.127,2.346 12.127,2.346 C12.127,2.346 12.127,9.302 12.127,9.302 C12.127,10.897 10.837,12.194 9.251,12.194 C9.251,12.194 2.336,12.194 2.336,12.194 C2.336,12.194 2.336,54.606 2.336,54.606 C2.336,55.183 2.802,55.653 3.376,55.653 C3.376,55.653 38.624,55.653 38.624,55.653 C39.197,55.653 39.664,55.183 39.664,54.606 C39.664,54.606 39.664,3.392 39.664,3.392 zM29.322,49.620 C26.387,49.620 23.998,47.218 23.998,44.265 C23.998,41.312 26.387,38.910 29.322,38.910 C32.258,38.910 34.646,41.312 34.646,44.265 C34.646,47.218 32.258,49.620 29.322,49.620 zM29.322,40.757 C27.399,40.757 25.834,42.331 25.834,44.265 C25.834,46.200 27.399,47.774 29.322,47.774 C31.246,47.774 32.810,46.200 32.810,44.265 C32.810,42.331 31.246,40.757 29.322,40.757 zM29.322,45.680 C28.546,45.680 27.915,45.046 27.915,44.265 C27.915,43.484 28.546,42.849 29.322,42.849 C30.098,42.849 30.730,43.484 30.730,44.265 C30.730,45.046 30.098,45.680 29.322,45.680 zM32.749,35.832 C32.749,35.832 9.251,35.832 9.251,35.832 C8.744,35.832 8.333,35.418 8.333,34.909 C8.333,34.398 8.744,33.985 9.251,33.985 C9.251,33.985 32.749,33.985 32.749,33.985 C33.256,33.985 33.667,34.398 33.667,34.909 C33.667,35.418 33.256,35.832 32.749,35.832 zM32.749,30.908 C32.749,30.908 9.251,30.908 9.251,30.908 C8.744,30.908 8.333,30.495 8.333,29.984 C8.333,29.474 8.744,29.061 9.251,29.061 C9.251,29.061 32.749,29.061 32.749,29.061 C33.256,29.061 33.667,29.474 33.667,29.984 C33.667,30.495 33.256,30.908 32.749,30.908 zM32.749,25.983 C32.749,25.983 9.251,25.983 9.251,25.983 C8.744,25.983 8.333,25.570 8.333,25.060 C8.333,24.550 8.744,24.136 9.251,24.136 C9.251,24.136 32.749,24.136 32.749,24.136 C33.256,24.136 33.667,24.550 33.667,25.060 C33.667,25.570 33.256,25.983 32.749,25.983 zM32.749,21.059 C32.749,21.059 9.251,21.059 9.251,21.059 C8.744,21.059 8.333,20.645 8.333,20.135 C8.333,19.625 8.744,19.212 9.251,19.212 C9.251,19.212 32.749,19.212 32.749,19.212 C33.256,19.212 33.667,19.625 33.667,20.135 C33.667,20.645 33.256,21.059 32.749,21.059 zM32.749,16.134 C32.749,16.134 9.251,16.134 9.251,16.134 C8.744,16.134 8.333,15.721 8.333,15.211 C8.333,14.701 8.744,14.288 9.251,14.288 C9.251,14.288 32.749,14.288 32.749,14.288 C33.256,14.288 33.667,14.701 33.667,15.211 C33.667,15.721 33.256,16.134 32.749,16.134 zM9.251,40.879 C9.251,40.879 21.000,40.879 21.000,40.879 C21.507,40.879 21.918,41.293 21.918,41.803 C21.918,42.313 21.507,42.726 21.000,42.726 C21.000,42.726 9.251,42.726 9.251,42.726 C8.744,42.726 8.333,42.313 8.333,41.803 C8.333,41.293 8.744,40.879 9.251,40.879 zM9.251,45.804 C9.251,45.804 21.000,45.804 21.000,45.804 C21.507,45.804 21.918,46.217 21.918,46.727 C21.918,47.237 21.507,47.651 21.000,47.651 C21.000,47.651 9.251,47.651 9.251,47.651 C8.744,47.651 8.333,47.237 8.333,46.727 C8.333,46.217 8.744,45.804 9.251,45.804 z" fill="none" stroke="#FFE401" stroke-width="1"/>
</g>
</svg>