<svg version="1.1" xmlns="http://www.w3.org/2000/svg" xmlns:xlink="http://www.w3.org/1999/xlink" width="55" height="35" viewBox="0 0 55 35">
<g id="Shape-1">
<path id="Shape-1-fill" d="M52.896,25.198 C52.896,25.198 46.271,25.198 46.271,25.198 C45.774,25.198 45.339,24.869 45.206,24.391 C45.135,24.132 45.029,23.783 44.909,23.397 C44.909,23.397 43.152,24.572 43.152,24.572 C43.388,25.806 42.972,27.044 41.964,27.903 C41.216,28.543 40.310,28.853 39.431,28.807 C39.113,29.601 38.473,30.281 37.588,30.725 C36.682,31.178 35.686,31.309 34.816,31.124 C34.348,32.070 33.522,32.851 32.517,33.238 C31.667,33.568 30.784,33.566 30.006,33.264 C29.426,33.751 28.589,33.999 27.500,33.999 C26.144,33.999 24.393,33.251 23.580,32.719 C22.595,32.075 17.653,28.372 13.541,24.941 C12.856,24.369 11.838,23.309 10.853,22.283 C10.563,21.981 10.290,21.697 10.037,21.437 C9.894,21.885 9.800,22.171 9.778,22.239 C9.630,22.693 9.206,22.998 8.729,22.998 C8.729,22.998 2.104,22.998 2.104,22.998 C1.495,22.998 1.000,22.506 1.000,21.899 C1.000,21.899 1.000,2.096 1.000,2.096 C1.000,1.793 1.126,1.502 1.347,1.296 C1.568,1.086 1.857,0.983 2.170,0.998 C4.445,1.133 12.013,1.712 13.905,3.498 C14.151,3.726 14.274,4.056 14.246,4.391 C14.218,4.709 14.178,5.046 14.131,5.397 C14.131,5.397 22.974,5.397 22.974,5.397 C25.818,3.164 28.387,2.618 32.367,4.391 C34.707,5.435 37.042,6.353 38.713,6.983 C38.589,6.734 38.547,6.453 38.626,6.184 C38.714,5.883 38.928,5.634 39.215,5.500 C39.416,5.408 44.226,3.197 52.896,3.197 C53.505,3.197 54.000,3.687 54.000,4.296 C54.000,4.296 54.000,24.098 54.000,24.098 C54.000,24.706 53.505,25.198 52.896,25.198 zM3.208,3.276 C3.208,3.276 3.208,20.798 3.208,20.798 C3.208,20.798 7.923,20.798 7.923,20.798 C8.745,18.215 11.392,9.654 11.978,4.835 C10.586,4.163 6.757,3.555 3.208,3.276 zM13.764,7.597 C13.030,11.384 11.697,16.034 10.774,19.068 C11.179,19.445 11.784,20.068 12.450,20.761 C13.351,21.698 14.371,22.758 14.961,23.253 C19.159,26.756 24.020,30.369 24.795,30.877 C25.442,31.304 26.765,31.799 27.500,31.799 C27.721,31.799 27.881,31.783 28.025,31.763 C26.353,30.194 24.129,27.847 23.381,27.049 C22.966,26.604 22.988,25.909 23.434,25.494 C23.878,25.078 24.578,25.102 24.996,25.546 C25.625,26.217 28.847,29.634 30.422,30.957 C30.427,30.962 30.430,30.969 30.435,30.974 C30.441,30.979 30.449,30.982 30.455,30.987 C30.894,31.388 31.384,31.311 31.722,31.184 C32.256,30.977 32.692,30.523 32.899,30.000 C31.066,28.364 27.827,24.882 27.791,24.845 C27.378,24.398 27.409,23.701 27.858,23.289 C28.308,22.880 29.004,22.906 29.419,23.355 C30.170,24.169 33.493,27.687 34.816,28.741 C34.827,28.749 34.831,28.762 34.841,28.771 C34.853,28.780 34.867,28.786 34.878,28.796 C35.154,29.051 35.892,29.113 36.598,28.756 C36.825,28.643 37.274,28.345 37.399,27.863 C35.737,26.352 31.633,22.091 31.122,21.560 C30.700,21.122 30.713,20.424 31.155,20.004 C31.594,19.581 32.294,19.597 32.716,20.037 C34.874,22.278 38.341,25.815 39.191,26.503 C39.520,26.712 40.100,26.595 40.529,26.228 C40.827,25.975 41.267,25.423 40.858,24.576 C40.030,22.860 36.349,19.894 33.102,17.278 C31.307,15.832 29.602,14.457 28.339,13.276 C28.017,13.406 27.774,13.514 27.566,13.606 C26.992,13.863 26.610,14.021 25.908,14.130 C24.207,16.378 21.924,17.166 19.422,16.343 C18.424,16.015 17.752,15.311 17.525,14.360 C16.997,12.136 19.030,9.108 20.538,7.597 C20.538,7.597 13.764,7.597 13.764,7.597 zM31.464,6.402 C27.555,4.662 25.705,5.557 22.116,9.135 C20.608,10.638 19.444,12.886 19.676,13.852 C19.709,13.993 19.771,14.140 20.115,14.255 C21.195,14.616 22.812,14.814 24.373,12.488 C24.556,12.215 24.852,12.039 25.181,12.006 C25.926,11.932 26.111,11.848 26.663,11.602 C27.025,11.441 27.485,11.234 28.229,10.966 C28.628,10.822 29.081,10.919 29.384,11.223 C30.592,12.427 32.486,13.954 34.492,15.568 C37.538,18.023 40.656,20.546 42.176,22.575 C42.176,22.575 44.202,21.219 44.202,21.219 C43.066,17.825 41.316,12.953 40.018,9.810 C38.873,9.402 35.171,8.054 31.464,6.402 z" fill="#000000"/>
<path id="Shape-1-stroke" d="M53.375,25.432 C53.375,25.432 46.625,25.432 46.625,25.432 C46.119,25.432 45.675,25.092 45.540,24.600 C45.467,24.333 45.359,23.973 45.237,23.575 C45.237,23.575 43.448,24.786 43.448,24.786 C43.688,26.057 43.264,27.333 42.237,28.218 C41.475,28.877 40.552,29.197 39.657,29.150 C39.333,29.968 38.680,30.668 37.778,31.126 C36.855,31.593 35.841,31.727 34.954,31.537 C34.477,32.511 33.636,33.316 32.612,33.715 C31.746,34.055 30.846,34.053 30.054,33.742 C29.462,34.243 28.609,34.499 27.500,34.499 C26.118,34.499 24.334,33.729 23.506,33.180 C22.503,32.516 17.467,28.701 13.278,25.167 C12.580,24.577 11.543,23.485 10.539,22.428 C10.243,22.117 9.965,21.825 9.707,21.556 C9.562,22.018 9.466,22.313 9.444,22.383 C9.293,22.850 8.861,23.165 8.375,23.165 C8.375,23.165 1.625,23.165 1.625,23.165 C1.004,23.165 0.500,22.657 0.500,22.032 C0.500,22.032 0.500,1.630 0.500,1.630 C0.500,1.317 0.628,1.018 0.853,0.804 C1.078,0.589 1.373,0.483 1.692,0.498 C4.010,0.637 11.721,1.233 13.649,3.074 C13.899,3.309 14.025,3.649 13.995,3.994 C13.967,4.321 13.927,4.669 13.879,5.030 C13.879,5.030 22.889,5.030 22.889,5.030 C25.786,2.730 28.404,2.168 32.459,3.994 C34.843,5.069 37.222,6.015 38.924,6.665 C38.798,6.408 38.755,6.118 38.835,5.842 C38.925,5.531 39.144,5.275 39.436,5.136 C39.641,5.041 44.541,2.763 53.375,2.763 C53.996,2.763 54.500,3.268 54.500,3.896 C54.500,3.896 54.500,24.298 54.500,24.298 C54.500,24.924 53.996,25.432 53.375,25.432 zM2.750,2.845 C2.750,2.845 2.750,20.898 2.750,20.898 C2.750,20.898 7.554,20.898 7.554,20.898 C8.391,18.237 11.088,9.417 11.685,4.452 C10.267,3.758 6.366,3.133 2.750,2.845 zM13.505,7.297 C12.757,11.199 11.399,15.989 10.459,19.115 C10.871,19.504 11.488,20.146 12.166,20.860 C13.084,21.825 14.124,22.918 14.724,23.428 C19.002,27.037 23.954,30.759 24.744,31.282 C25.403,31.722 26.751,32.233 27.500,32.233 C27.725,32.233 27.888,32.216 28.035,32.195 C26.332,30.579 24.066,28.160 23.304,27.339 C22.881,26.880 22.903,26.164 23.358,25.736 C23.810,25.307 24.523,25.332 24.948,25.790 C25.590,26.482 28.872,30.002 30.477,31.364 C30.483,31.369 30.485,31.377 30.491,31.382 C30.497,31.387 30.504,31.391 30.510,31.396 C30.958,31.809 31.458,31.729 31.802,31.598 C32.346,31.385 32.789,30.918 33.001,30.379 C31.133,28.693 27.833,25.106 27.797,25.067 C27.376,24.607 27.408,23.888 27.864,23.464 C28.323,23.043 29.032,23.070 29.455,23.532 C30.220,24.371 33.606,27.996 34.954,29.081 C34.965,29.090 34.969,29.103 34.980,29.112 C34.991,29.122 35.006,29.128 35.017,29.138 C35.298,29.401 36.050,29.465 36.770,29.097 C37.001,28.981 37.459,28.674 37.586,28.177 C35.893,26.620 31.711,22.230 31.190,21.683 C30.760,21.231 30.774,20.513 31.224,20.080 C31.671,19.645 32.385,19.661 32.814,20.114 C35.013,22.423 38.546,26.067 39.412,26.776 C39.746,26.991 40.338,26.870 40.775,26.493 C41.079,26.232 41.526,25.663 41.110,24.790 C40.266,23.022 36.516,19.966 33.208,17.271 C31.379,15.782 29.642,14.365 28.355,13.148 C28.026,13.281 27.779,13.393 27.567,13.488 C26.982,13.753 26.593,13.916 25.878,14.028 C24.145,16.344 21.819,17.156 19.269,16.308 C18.252,15.970 17.568,15.244 17.337,14.265 C16.799,11.973 18.870,8.854 20.407,7.297 C20.407,7.297 13.505,7.297 13.505,7.297 zM31.539,6.065 C27.556,4.273 25.671,5.195 22.014,8.881 C20.478,10.430 19.292,12.747 19.528,13.741 C19.562,13.887 19.625,14.039 19.976,14.157 C21.076,14.528 22.723,14.732 24.314,12.336 C24.501,12.055 24.802,11.873 25.138,11.840 C25.896,11.763 26.085,11.676 26.647,11.423 C27.016,11.257 27.484,11.044 28.243,10.768 C28.650,10.620 29.111,10.720 29.419,11.033 C30.650,12.273 32.580,13.846 34.623,15.510 C37.727,18.039 40.904,20.638 42.453,22.728 C42.453,22.728 44.517,21.332 44.517,21.332 C43.359,17.834 41.577,12.815 40.254,9.577 C39.088,9.157 35.315,7.767 31.539,6.065 z" fill="none" stroke="#FFE401" stroke-width="1"/>
</g>
</svg>