<svg version="1.1" xmlns="http://www.w3.org/2000/svg" xmlns:xlink="http://www.w3.org/1999/xlink" width="65" height="59" viewBox="0 0 65 59">
<g id="Forma-1">
<path id="Forma-1-fill" d="M35.323,57.969 C35.323,57.969 35.323,21.694 35.323,21.694 C35.323,18.691 37.377,17.625 39.137,17.625 C39.280,17.625 39.389,17.633 39.452,17.637 C39.452,17.637 60.468,17.650 60.468,17.650 C61.683,17.877 63.987,19.013 63.987,21.693 C63.987,21.693 63.987,57.969 63.987,57.969 L35.323,57.969 zM62.073,21.690 C62.073,20.191 60.560,19.745 60.207,19.662 C60.207,19.662 39.299,19.656 39.299,19.656 C39.288,19.656 39.227,19.650 39.137,19.650 C37.240,19.650 37.240,21.189 37.240,21.693 C37.240,21.693 37.240,55.941 37.240,55.941 L62.071,55.941 L62.073,55.941 C62.073,55.941 62.073,21.690 62.073,21.690 zM56.219,38.135 L59.855,38.135 L59.855,42.028 L56.219,42.028 L56.219,38.135 zM50.789,33.402 L59.826,33.402 L59.826,35.938 L50.789,35.938 L50.789,33.402 zM39.452,23.048 L59.826,23.048 L59.826,30.528 L39.452,30.528 L39.452,23.048 zM54.975,27.840 C55.004,27.950 55.048,28.059 55.111,28.171 C55.172,28.283 55.256,28.386 55.373,28.479 C55.485,28.569 55.633,28.643 55.814,28.705 C55.994,28.763 56.211,28.792 56.471,28.792 C56.752,28.792 56.987,28.750 57.174,28.670 C57.362,28.593 57.511,28.490 57.622,28.376 C57.734,28.254 57.811,28.132 57.855,27.997 C57.902,27.863 57.923,27.738 57.922,27.627 C57.922,27.489 57.906,27.372 57.878,27.282 C57.855,27.183 57.816,27.107 57.775,27.045 C57.734,26.982 57.690,26.933 57.641,26.900 C57.589,26.867 57.541,26.838 57.501,26.819 C57.461,26.800 57.425,26.785 57.398,26.779 C57.369,26.771 57.358,26.763 57.358,26.757 C57.358,26.757 57.358,26.752 57.358,26.752 C57.358,26.748 57.381,26.740 57.429,26.728 C57.478,26.719 57.530,26.688 57.587,26.639 C57.645,26.589 57.698,26.512 57.744,26.407 C57.793,26.303 57.816,26.152 57.816,25.956 C57.816,25.880 57.793,25.785 57.748,25.675 C57.702,25.564 57.629,25.461 57.526,25.359 C57.419,25.260 57.285,25.179 57.113,25.108 C56.941,25.036 56.731,25.003 56.479,25.003 C56.282,25.003 56.097,25.030 55.925,25.083 C55.753,25.135 55.600,25.212 55.468,25.315 C55.337,25.421 55.230,25.553 55.153,25.713 C55.077,25.874 55.038,26.063 55.037,26.284 C55.037,26.284 55.969,26.284 55.969,26.284 C55.967,26.206 55.978,26.137 56.001,26.080 C56.028,26.021 56.063,25.978 56.104,25.935 C56.147,25.897 56.198,25.869 56.259,25.848 C56.319,25.829 56.383,25.820 56.448,25.820 C56.498,25.820 56.552,25.825 56.605,25.837 C56.659,25.850 56.708,25.866 56.752,25.893 C56.796,25.916 56.832,25.953 56.859,25.993 C56.888,26.036 56.899,26.086 56.899,26.144 C56.899,26.214 56.888,26.272 56.857,26.317 C56.829,26.359 56.789,26.394 56.745,26.418 C56.697,26.442 56.647,26.459 56.592,26.467 C56.536,26.473 56.479,26.477 56.429,26.477 C56.363,26.477 56.307,26.473 56.261,26.467 C56.215,26.463 56.175,26.457 56.139,26.455 C56.139,26.455 56.139,27.177 56.139,27.177 C56.175,27.169 56.215,27.163 56.257,27.159 C56.299,27.152 56.355,27.150 56.429,27.150 C56.483,27.150 56.544,27.157 56.597,27.163 C56.655,27.171 56.703,27.192 56.748,27.222 C56.789,27.250 56.823,27.287 56.852,27.335 C56.876,27.386 56.892,27.454 56.892,27.535 C56.892,27.688 56.850,27.796 56.767,27.858 C56.683,27.918 56.571,27.950 56.429,27.950 C56.341,27.950 56.263,27.939 56.191,27.912 C56.118,27.889 56.059,27.844 56.015,27.786 C55.917,27.690 55.873,27.543 55.879,27.341 C55.879,27.341 54.935,27.341 54.935,27.341 C54.931,27.388 54.931,27.458 54.931,27.544 C54.935,27.633 54.947,27.732 54.975,27.840 zM54.611,28.747 L54.611,27.842 L53.044,27.842 C53.044,27.842 53.044,27.836 53.044,27.836 C53.204,27.730 53.376,27.627 53.556,27.529 C53.735,27.428 53.900,27.320 54.049,27.196 C54.198,27.072 54.320,26.931 54.416,26.767 C54.515,26.605 54.561,26.405 54.561,26.167 C54.561,25.974 54.526,25.802 54.458,25.653 C54.393,25.506 54.297,25.386 54.171,25.287 C54.049,25.194 53.898,25.120 53.724,25.073 C53.552,25.022 53.357,24.999 53.151,24.999 C52.920,24.999 52.708,25.034 52.520,25.106 C52.333,25.178 52.173,25.282 52.047,25.419 C51.917,25.553 51.821,25.722 51.760,25.920 C51.695,26.121 51.672,26.348 51.684,26.600 C51.684,26.600 52.620,26.600 52.620,26.600 C52.612,26.376 52.650,26.192 52.727,26.052 C52.807,25.916 52.943,25.843 53.143,25.843 C53.260,25.843 53.357,25.875 53.438,25.939 C53.520,26.005 53.560,26.125 53.560,26.295 C53.560,26.359 53.544,26.420 53.512,26.475 C53.479,26.527 53.439,26.576 53.392,26.620 C53.344,26.662 53.296,26.703 53.239,26.736 C53.183,26.771 53.132,26.804 53.092,26.833 C52.983,26.902 52.870,26.972 52.753,27.048 C52.639,27.123 52.526,27.196 52.417,27.280 C52.310,27.359 52.209,27.444 52.113,27.535 C52.022,27.626 51.938,27.726 51.865,27.830 C51.777,27.957 51.712,28.094 51.668,28.246 C51.622,28.401 51.603,28.565 51.615,28.747 C51.615,28.747 54.611,28.747 54.611,28.747 zM48.694,26.614 L49.505,26.614 L49.505,28.747 L50.541,28.747 L50.541,25.046 C50.541,25.046 49.723,25.046 49.723,25.046 C49.720,25.196 49.683,25.326 49.620,25.430 C49.563,25.533 49.483,25.618 49.387,25.680 C49.288,25.742 49.181,25.785 49.062,25.814 C48.942,25.838 48.818,25.850 48.694,25.846 C48.694,25.846 48.694,26.614 48.694,26.614 zM43.088,52.970 L39.452,52.970 L39.452,49.079 L43.088,49.079 L43.088,52.970 zM39.574,43.606 L43.214,43.606 L43.214,47.501 L39.574,47.501 L39.574,43.606 zM48.466,52.970 L44.828,52.970 L44.828,49.079 L48.466,49.079 L48.466,52.970 zM48.588,47.501 L44.949,47.501 L44.949,43.606 L48.588,43.606 L48.588,47.501 zM48.588,42.028 L44.949,42.028 L44.949,38.135 L48.588,38.135 L48.588,42.028 zM39.574,42.028 L39.574,38.135 L43.212,38.135 L43.212,42.028 L39.574,42.028 zM39.467,33.402 L48.500,33.402 L48.500,35.938 L39.467,35.938 L39.467,33.402 zM50.514,38.135 L54.154,38.135 L54.154,42.028 L50.514,42.028 L50.514,38.135 zM54.049,47.501 L50.409,47.501 L50.409,43.606 L54.049,43.606 L54.049,47.501 zM54.154,52.970 L50.514,52.970 L50.514,49.079 L54.154,49.079 L54.154,52.970 zM59.750,47.501 L56.112,47.501 L56.112,43.606 L59.750,43.606 L59.750,47.501 zM59.746,52.970 L56.112,52.970 L56.112,49.079 L59.746,49.079 L59.746,52.970 zM44.215,14.355 L34.366,14.355 L34.366,3.432 L11.385,3.432 L11.385,7.702 L8.998,7.702 L8.998,1.012 L36.875,1.012 L46.605,10.829 L46.605,15.602 L44.215,15.602 L44.215,14.355 zM44.215,11.833 L36.754,4.306 L36.754,11.937 L44.215,11.937 L44.215,11.833 zM13.672,17.093 L13.656,17.099 L24.188,39.322 L24.295,51.077 L15.906,43.155 L5.421,21.116 L5.410,21.120 L2.025,14.007 L10.287,9.980 L13.672,17.093 zM16.640,42.709 L21.349,47.134 L23.395,46.136 L23.338,39.427 L22.992,38.701 L21.881,41.842 L19.623,40.554 L19.377,43.062 L16.162,41.703 L16.640,42.709 zM4.306,14.817 L5.559,17.446 L10.745,14.923 L9.491,12.291 L4.306,14.817 zM11.385,55.519 L33.506,55.566 L33.506,57.983 L8.998,57.928 L8.998,34.868 L11.385,39.869 L11.385,55.519 z" fill="#000000"/>
<path id="Forma-1-stroke" d="M35.360,58.469 C35.360,58.469 35.360,21.558 35.360,21.558 C35.360,18.502 37.446,17.417 39.234,17.417 C39.380,17.417 39.490,17.425 39.554,17.429 C39.554,17.429 60.904,17.442 60.904,17.442 C62.138,17.673 64.479,18.830 64.479,21.556 C64.479,21.556 64.479,58.469 64.479,58.469 L35.360,58.469 zM62.534,21.553 C62.534,20.028 60.997,19.574 60.638,19.489 C60.638,19.489 39.399,19.484 39.399,19.484 C39.387,19.484 39.325,19.477 39.234,19.477 C37.307,19.477 37.307,21.044 37.307,21.556 C37.307,21.556 37.307,56.405 37.307,56.405 L62.532,56.405 L62.534,56.405 C62.534,56.405 62.534,21.553 62.534,21.553 zM56.587,38.286 L60.281,38.286 L60.281,42.248 L56.587,42.248 L56.587,38.286 zM51.071,33.471 L60.252,33.471 L60.252,36.051 L51.071,36.051 L51.071,33.471 zM39.554,22.935 L60.252,22.935 L60.252,30.547 L39.554,30.547 L39.554,22.935 zM55.324,27.811 C55.353,27.923 55.398,28.033 55.462,28.148 C55.524,28.262 55.609,28.366 55.728,28.461 C55.842,28.553 55.992,28.628 56.176,28.691 C56.358,28.750 56.580,28.780 56.844,28.780 C57.129,28.780 57.368,28.737 57.558,28.656 C57.748,28.577 57.900,28.472 58.012,28.357 C58.127,28.233 58.204,28.109 58.249,27.971 C58.297,27.835 58.319,27.707 58.317,27.595 C58.317,27.454 58.301,27.335 58.272,27.243 C58.249,27.143 58.210,27.066 58.167,27.003 C58.127,26.938 58.082,26.888 58.032,26.855 C57.979,26.822 57.931,26.792 57.890,26.773 C57.849,26.753 57.812,26.737 57.785,26.731 C57.756,26.723 57.744,26.715 57.744,26.709 C57.744,26.709 57.744,26.704 57.744,26.704 C57.744,26.700 57.768,26.692 57.816,26.680 C57.867,26.670 57.919,26.639 57.977,26.589 C58.035,26.538 58.090,26.460 58.136,26.353 C58.187,26.247 58.210,26.093 58.210,25.895 C58.210,25.816 58.187,25.720 58.140,25.608 C58.094,25.495 58.020,25.391 57.915,25.287 C57.806,25.186 57.671,25.104 57.496,25.031 C57.321,24.958 57.108,24.925 56.851,24.925 C56.652,24.925 56.463,24.952 56.289,25.006 C56.114,25.058 55.959,25.137 55.825,25.242 C55.691,25.349 55.582,25.484 55.504,25.647 C55.427,25.810 55.388,26.003 55.386,26.227 C55.386,26.227 56.333,26.227 56.333,26.227 C56.331,26.149 56.343,26.078 56.366,26.021 C56.393,25.960 56.428,25.917 56.471,25.873 C56.514,25.834 56.566,25.806 56.628,25.784 C56.688,25.765 56.754,25.755 56.820,25.755 C56.871,25.755 56.925,25.761 56.980,25.773 C57.034,25.786 57.084,25.802 57.129,25.830 C57.174,25.853 57.211,25.891 57.238,25.932 C57.267,25.975 57.279,26.026 57.279,26.086 C57.279,26.157 57.267,26.216 57.236,26.261 C57.207,26.304 57.166,26.339 57.121,26.365 C57.073,26.389 57.022,26.406 56.966,26.414 C56.910,26.420 56.851,26.424 56.801,26.424 C56.733,26.424 56.677,26.420 56.630,26.414 C56.584,26.410 56.543,26.404 56.506,26.402 C56.506,26.402 56.506,27.136 56.506,27.136 C56.543,27.129 56.584,27.123 56.626,27.119 C56.669,27.111 56.725,27.109 56.801,27.109 C56.855,27.109 56.918,27.117 56.972,27.123 C57.030,27.130 57.079,27.152 57.125,27.182 C57.166,27.211 57.201,27.249 57.230,27.298 C57.255,27.349 57.271,27.418 57.271,27.501 C57.271,27.656 57.228,27.766 57.145,27.829 C57.059,27.890 56.945,27.923 56.801,27.923 C56.712,27.923 56.632,27.912 56.558,27.884 C56.485,27.861 56.425,27.815 56.380,27.756 C56.281,27.658 56.236,27.508 56.242,27.304 C56.242,27.304 55.283,27.304 55.283,27.304 C55.279,27.351 55.279,27.422 55.279,27.510 C55.283,27.601 55.295,27.701 55.324,27.811 zM54.953,28.735 L54.953,27.813 L53.362,27.813 C53.362,27.813 53.362,27.807 53.362,27.807 C53.525,27.699 53.699,27.595 53.882,27.495 C54.064,27.392 54.231,27.282 54.383,27.156 C54.534,27.030 54.658,26.886 54.755,26.719 C54.856,26.554 54.903,26.351 54.903,26.109 C54.903,25.913 54.868,25.737 54.798,25.586 C54.732,25.436 54.635,25.314 54.507,25.214 C54.383,25.119 54.229,25.043 54.053,24.995 C53.878,24.944 53.680,24.921 53.471,24.921 C53.236,24.921 53.020,24.956 52.830,25.029 C52.640,25.102 52.477,25.208 52.349,25.347 C52.217,25.484 52.120,25.656 52.057,25.857 C51.991,26.062 51.968,26.293 51.980,26.550 C51.980,26.550 52.931,26.550 52.931,26.550 C52.923,26.322 52.962,26.135 53.040,25.992 C53.121,25.853 53.259,25.779 53.463,25.779 C53.581,25.779 53.680,25.812 53.762,25.877 C53.845,25.944 53.886,26.066 53.886,26.239 C53.886,26.304 53.870,26.367 53.837,26.422 C53.804,26.476 53.763,26.525 53.715,26.569 C53.666,26.613 53.618,26.654 53.560,26.688 C53.504,26.723 53.451,26.757 53.410,26.786 C53.300,26.857 53.185,26.928 53.067,27.005 C52.950,27.081 52.836,27.156 52.725,27.241 C52.617,27.321 52.514,27.408 52.417,27.501 C52.323,27.593 52.238,27.695 52.164,27.801 C52.075,27.930 52.009,28.069 51.964,28.225 C51.918,28.382 51.898,28.549 51.910,28.735 C51.910,28.735 54.953,28.735 54.953,28.735 zM48.942,26.564 L49.767,26.564 L49.767,28.735 L50.819,28.735 L50.819,24.968 C50.819,24.968 49.988,24.968 49.988,24.968 C49.985,25.121 49.948,25.253 49.884,25.359 C49.825,25.464 49.744,25.550 49.647,25.613 C49.546,25.676 49.437,25.720 49.317,25.749 C49.195,25.774 49.068,25.786 48.942,25.782 C48.942,25.782 48.942,26.564 48.942,26.564 zM43.248,53.382 L39.554,53.382 L39.554,49.423 L43.248,49.423 L43.248,53.382 zM39.678,43.854 L43.376,43.854 L43.376,47.817 L39.678,47.817 L39.678,43.854 zM48.711,53.382 L45.016,53.382 L45.016,49.423 L48.711,49.423 L48.711,53.382 zM48.835,47.817 L45.138,47.817 L45.138,43.854 L48.835,43.854 L48.835,47.817 zM48.835,42.248 L45.138,42.248 L45.138,38.286 L48.835,38.286 L48.835,42.248 zM39.678,42.248 L39.678,38.286 L43.374,38.286 L43.374,42.248 L39.678,42.248 zM39.570,33.471 L48.746,33.471 L48.746,36.051 L39.570,36.051 L39.570,33.471 zM50.792,38.286 L54.489,38.286 L54.489,42.248 L50.792,42.248 L50.792,38.286 zM54.383,47.817 L50.685,47.817 L50.685,43.854 L54.383,43.854 L54.383,47.817 zM54.489,53.382 L50.792,53.382 L50.792,49.423 L54.489,49.423 L54.489,53.382 zM60.174,47.817 L56.479,47.817 L56.479,43.854 L60.174,43.854 L60.174,47.817 zM60.170,53.382 L56.479,53.382 L56.479,49.423 L60.170,49.423 L60.170,53.382 zM44.393,14.089 L34.388,14.089 L34.388,2.975 L11.042,2.975 L11.042,7.320 L8.617,7.320 L8.617,0.513 L36.936,0.513 L46.821,10.502 L46.821,15.359 L44.393,15.359 L44.393,14.089 zM44.393,11.524 L36.814,3.864 L36.814,11.629 L44.393,11.629 L44.393,11.524 zM13.365,16.876 L13.349,16.882 L24.048,39.495 L24.156,51.455 L15.635,43.395 L4.983,20.969 L4.971,20.973 L1.533,13.736 L9.927,9.638 L13.365,16.876 zM16.380,42.941 L21.163,47.443 L23.242,46.428 L23.185,39.601 L22.832,38.863 L21.704,42.059 L19.411,40.748 L19.160,43.301 L15.895,41.917 L16.380,42.941 zM3.851,14.559 L5.123,17.234 L10.392,14.668 L9.117,11.990 L3.851,14.559 zM11.042,55.975 L33.513,56.023 L33.513,58.483 L8.617,58.427 L8.617,34.963 L11.042,40.051 L11.042,55.975 z" fill="none" stroke="#FFE401" stroke-width="1"/>
</g>
</svg>