<svg version="1.1" xmlns="http://www.w3.org/2000/svg" xmlns:xlink="http://www.w3.org/1999/xlink" width="56" height="59" viewBox="0 0 56 59">
<g id="Forma-1">
<path id="Forma-1-fill" d="M52.375,52.671 L52.375,6.681 L49.316,6.681 L51.322,7.310 L51.322,52.671 L34.369,56.917 L34.369,6.681 L26.871,6.681 L26.871,52.671 L24.241,52.671 L24.241,4.031 L34.367,4.031 L34.367,2.005 L34.369,2.005 L40.838,4.031 L55.003,4.031 L55.003,52.671 L52.375,52.671 zM38.342,31.337 C37.488,31.337 36.797,32.183 36.797,33.228 C36.797,34.272 37.488,35.120 38.342,35.120 C39.195,35.120 39.886,34.272 39.886,33.228 C39.886,32.185 39.195,31.337 38.342,31.337 zM15.336,56.318 L15.354,56.651 L13.132,56.917 L12.889,54.818 L12.864,54.595 L12.821,54.234 L12.792,54.238 L10.161,45.525 L13.917,45.255 L16.422,53.765 L16.466,54.167 L16.814,54.128 L18.867,54.173 L19.083,56.056 L17.382,56.414 L15.336,56.318 zM7.256,37.896 L10.693,37.692 L10.623,36.278 L10.089,36.420 L6.200,20.826 L9.643,19.915 L12.454,30.942 L12.451,31.105 L13.534,35.507 L12.622,35.748 L13.457,36.060 L13.549,37.536 L17.412,37.261 L17.795,44.500 L7.661,45.183 L7.256,37.896 zM11.541,37.466 L12.671,37.398 L12.633,36.719 L11.503,36.787 L11.541,37.466 zM8.041,17.581 C4.703,17.581 1.997,14.850 1.997,11.481 C1.997,8.112 4.703,5.381 8.041,5.381 C11.379,5.381 14.086,8.112 14.086,11.481 C14.086,14.850 11.379,17.581 8.041,17.581 zM2.422,53.730 L2.459,53.478 L2.437,53.472 L4.428,46.190 L4.823,37.165 L4.157,37.069 L4.157,18.482 L10.099,18.482 L12.792,18.482 L12.609,28.685 L10.219,19.109 L9.628,19.306 L5.885,20.260 L5.473,20.362 L5.577,20.781 L9.536,36.620 L9.640,37.035 L10.054,36.929 L10.156,36.884 L10.166,37.281 L6.591,37.451 L7.098,45.671 L8.246,45.622 L6.000,54.308 L6.345,54.364 L8.285,55.129 L7.988,56.998 L6.282,56.720 L4.337,56.068 L4.267,56.394 L2.054,56.037 L2.384,53.957 L2.422,53.730 z" fill="#000000"/>
<path id="Forma-1-stroke" d="M52.817,53.077 L52.817,6.281 L49.701,6.281 L51.744,6.921 L51.744,53.077 L34.477,57.398 L34.477,6.281 L26.841,6.281 L26.841,53.077 L24.162,53.077 L24.162,3.584 L34.476,3.584 L34.476,1.522 L34.477,1.522 L41.066,3.584 L55.494,3.584 L55.494,53.077 L52.817,53.077 zM38.524,31.369 C37.655,31.369 36.950,32.230 36.950,33.293 C36.950,34.356 37.655,35.218 38.524,35.218 C39.393,35.218 40.097,34.356 40.097,33.293 C40.097,32.232 39.393,31.369 38.524,31.369 zM15.092,56.789 L15.110,57.127 L12.848,57.398 L12.600,55.263 L12.575,55.035 L12.530,54.668 L12.502,54.672 L9.821,45.806 L13.647,45.532 L16.199,54.191 L16.243,54.600 L16.597,54.561 L18.689,54.606 L18.909,56.521 L17.176,56.886 L15.092,56.789 zM6.863,38.044 L10.363,37.836 L10.292,36.397 L9.748,36.541 L5.787,20.674 L9.294,19.747 L12.157,30.967 L12.154,31.133 L13.257,35.612 L12.328,35.858 L13.179,36.175 L13.272,37.677 L17.207,37.397 L17.597,44.764 L7.275,45.458 L6.863,38.044 zM11.227,37.606 L12.378,37.536 L12.339,36.846 L11.188,36.914 L11.227,37.606 zM7.662,17.372 C4.263,17.372 1.506,14.593 1.506,11.165 C1.506,7.737 4.263,4.958 7.662,4.958 C11.062,4.958 13.819,7.737 13.819,11.165 C13.819,14.593 11.062,17.372 7.662,17.372 zM1.939,54.155 L1.976,53.898 L1.954,53.893 L3.983,46.483 L4.385,37.299 L3.706,37.202 L3.706,18.289 L9.759,18.289 L12.502,18.289 L12.315,28.671 L9.881,18.927 L9.278,19.127 L5.466,20.098 L5.047,20.202 L5.152,20.628 L9.185,36.745 L9.290,37.167 L9.713,37.059 L9.816,37.013 L9.827,37.417 L6.186,37.590 L6.702,45.954 L7.871,45.905 L5.583,54.744 L5.935,54.800 L7.910,55.579 L7.608,57.480 L5.870,57.198 L3.889,56.534 L3.818,56.866 L1.564,56.503 L1.900,54.386 L1.939,54.155 z" fill="none" stroke="#FFE401" stroke-width="1"/>
</g>
</svg>