<svg version="1.1" xmlns="http://www.w3.org/2000/svg" xmlns:xlink="http://www.w3.org/1999/xlink" width="62" height="55" viewBox="0 0 62 55">
<g id="Forma-1">
<path id="Forma-1-fill" d="M58.242,53.999 C58.242,53.999 45.091,53.999 45.091,53.999 C43.570,53.999 42.333,52.772 42.333,51.264 C42.333,51.264 42.333,40.952 42.333,40.952 C42.333,40.952 1.879,40.952 1.879,40.952 C1.393,40.952 1.000,40.561 1.000,40.080 C1.000,39.598 1.393,39.208 1.879,39.208 C1.879,39.208 2.879,39.208 2.879,39.208 L2.879,16.270 C2.879,16.270 2.331,16.596 2.331,16.596 C1.915,16.844 1.375,16.710 1.125,16.297 C0.875,15.884 1.010,15.349 1.427,15.101 C1.427,15.101 24.911,1.121 24.911,1.121 C25.190,0.955 25.537,0.955 25.816,1.121 C25.816,1.121 49.301,15.101 49.301,15.101 C49.717,15.349 49.852,15.884 49.602,16.297 C49.437,16.570 49.146,16.721 48.848,16.721 C48.694,16.721 48.538,16.680 48.396,16.596 C48.396,16.596 47.849,16.270 47.849,16.270 L47.849,35.480 C47.849,35.480 58.242,35.480 58.242,35.480 C59.763,35.480 61.000,36.707 61.000,38.216 C61.000,38.216 61.000,51.264 61.000,51.264 C61.000,52.772 59.763,53.999 58.242,53.999 zM46.091,15.224 L25.364,2.886 L4.637,15.224 L4.637,29.888 L8.515,29.888 C8.515,29.888 8.515,17.713 8.515,17.713 C8.515,17.231 8.909,16.840 9.394,16.840 C9.394,16.840 41.333,16.840 41.333,16.840 C41.819,16.840 42.212,17.231 42.212,17.713 C42.212,17.713 42.212,29.888 42.212,29.888 L46.091,29.888 L46.091,15.224 zM10.273,23.244 L10.273,29.888 L22.606,29.888 L22.606,23.244 L10.273,23.244 zM24.364,18.584 L24.364,29.888 L26.363,29.888 L26.363,18.584 L24.364,18.584 zM46.091,31.632 C46.091,31.632 39.454,31.632 39.454,31.632 C38.969,31.632 38.576,31.242 38.576,30.760 C38.576,30.279 38.969,29.888 39.454,29.888 C39.454,29.888 40.455,29.888 40.455,29.888 L40.455,23.244 L28.121,23.244 L28.121,29.888 C28.121,29.888 35.697,29.888 35.697,29.888 C36.183,29.888 36.576,30.279 36.576,30.760 C36.576,31.242 36.183,31.632 35.697,31.632 C35.697,31.632 4.637,31.632 4.637,31.632 L4.637,39.208 L42.333,39.208 C42.333,39.208 42.333,38.216 42.333,38.216 C42.333,36.707 43.570,35.480 45.091,35.480 C45.091,35.480 46.091,35.480 46.091,35.480 L46.091,31.632 zM59.242,38.216 C59.242,37.669 58.794,37.224 58.242,37.224 C58.242,37.224 45.091,37.224 45.091,37.224 C44.540,37.224 44.091,37.669 44.091,38.216 C44.091,38.216 44.091,51.264 44.091,51.264 C44.091,51.811 44.540,52.256 45.091,52.256 C45.091,52.256 58.242,52.256 58.242,52.256 C58.794,52.256 59.242,51.811 59.242,51.264 C59.242,51.264 59.242,38.216 59.242,38.216 zM52.483,49.724 C52.345,50.065 52.015,50.272 51.666,50.272 C51.558,50.272 51.447,50.252 51.340,50.209 C50.889,50.031 50.670,49.523 50.851,49.076 C50.851,49.076 52.247,45.611 52.247,45.611 C52.247,45.611 49.788,45.611 49.788,45.611 C49.496,45.611 49.224,45.468 49.060,45.229 C48.896,44.989 48.864,44.685 48.972,44.416 C48.972,44.416 50.851,39.756 50.851,39.756 C51.031,39.309 51.542,39.091 51.993,39.271 C52.444,39.449 52.663,39.956 52.483,40.404 C52.483,40.404 51.086,43.868 51.086,43.868 C51.086,43.868 53.545,43.868 53.545,43.868 C53.837,43.868 54.110,44.011 54.273,44.251 C54.437,44.491 54.470,44.795 54.361,45.064 C54.361,45.064 52.483,49.724 52.483,49.724 zM56.363,33.496 C55.878,33.496 55.484,33.106 55.484,32.624 C55.484,32.624 55.484,25.168 55.484,25.168 C55.484,23.593 54.193,22.312 52.606,22.312 C52.606,22.312 50.727,22.312 50.727,22.312 C50.242,22.312 49.848,21.922 49.848,21.441 C49.848,20.959 50.242,20.568 50.727,20.568 C50.727,20.568 52.606,20.568 52.606,20.568 C55.162,20.568 57.242,22.632 57.242,25.168 C57.242,25.168 57.242,32.624 57.242,32.624 C57.242,33.106 56.849,33.496 56.363,33.496 zM28.182,42.936 C28.667,42.936 29.061,43.326 29.061,43.808 C29.061,43.808 29.061,45.672 29.061,45.672 C29.061,47.246 30.352,48.528 31.939,48.528 C31.939,48.528 39.454,48.528 39.454,48.528 C39.940,48.528 40.333,48.918 40.333,49.400 C40.333,49.881 39.940,50.271 39.454,50.271 C39.454,50.271 31.939,50.271 31.939,50.271 C29.383,50.271 27.303,48.208 27.303,45.672 C27.303,45.672 27.303,43.808 27.303,43.808 C27.303,43.326 27.696,42.936 28.182,42.936 z" fill="#000000"/>
<path id="Forma-1-stroke" d="M58.696,54.499 C58.696,54.499 45.326,54.499 45.326,54.499 C43.780,54.499 42.522,53.248 42.522,51.712 C42.522,51.712 42.522,41.205 42.522,41.205 C42.522,41.205 1.393,41.205 1.393,41.205 C0.900,41.205 0.500,40.807 0.500,40.317 C0.500,39.826 0.900,39.429 1.393,39.429 C1.393,39.429 2.410,39.429 2.410,39.429 L2.410,16.058 C2.410,16.058 1.853,16.390 1.853,16.390 C1.430,16.643 0.881,16.506 0.627,16.086 C0.373,15.665 0.511,15.119 0.934,14.867 C0.934,14.867 24.810,0.623 24.810,0.623 C25.093,0.454 25.446,0.454 25.729,0.623 C25.729,0.623 49.606,14.867 49.606,14.867 C50.029,15.119 50.166,15.665 49.912,16.086 C49.745,16.363 49.449,16.517 49.145,16.517 C48.989,16.517 48.830,16.476 48.686,16.390 C48.686,16.390 48.129,16.058 48.129,16.058 L48.129,35.630 C48.129,35.630 58.696,35.630 58.696,35.630 C60.242,35.630 61.500,36.881 61.500,38.418 C61.500,38.418 61.500,51.712 61.500,51.712 C61.500,53.248 60.242,54.499 58.696,54.499 zM46.342,14.992 L25.270,2.422 L4.197,14.992 L4.197,29.933 L8.140,29.933 C8.140,29.933 8.140,17.528 8.140,17.528 C8.140,17.037 8.540,16.639 9.034,16.639 C9.034,16.639 41.506,16.639 41.506,16.639 C41.999,16.639 42.399,17.037 42.399,17.528 C42.399,17.528 42.399,29.933 42.399,29.933 L46.342,29.933 L46.342,14.992 zM9.927,23.164 L9.927,29.933 L22.466,29.933 L22.466,23.164 L9.927,23.164 zM24.253,18.416 L24.253,29.933 L26.286,29.933 L26.286,18.416 L24.253,18.416 zM46.342,31.710 C46.342,31.710 39.595,31.710 39.595,31.710 C39.102,31.710 38.702,31.312 38.702,30.821 C38.702,30.331 39.102,29.933 39.595,29.933 C39.595,29.933 40.612,29.933 40.612,29.933 L40.612,23.164 L28.073,23.164 L28.073,29.933 C28.073,29.933 35.776,29.933 35.776,29.933 C36.269,29.933 36.669,30.331 36.669,30.821 C36.669,31.312 36.269,31.710 35.776,31.710 C35.776,31.710 4.197,31.710 4.197,31.710 L4.197,39.429 L42.522,39.429 C42.522,39.429 42.522,38.418 42.522,38.418 C42.522,36.881 43.780,35.630 45.326,35.630 C45.326,35.630 46.342,35.630 46.342,35.630 L46.342,31.710 zM59.713,38.418 C59.713,37.861 59.257,37.407 58.696,37.407 C58.696,37.407 45.326,37.407 45.326,37.407 C44.765,37.407 44.309,37.861 44.309,38.418 C44.309,38.418 44.309,51.712 44.309,51.712 C44.309,52.269 44.765,52.722 45.326,52.722 C45.326,52.722 58.696,52.722 58.696,52.722 C59.257,52.722 59.713,52.269 59.713,51.712 C59.713,51.712 59.713,38.418 59.713,38.418 zM52.841,50.143 C52.701,50.490 52.365,50.701 52.011,50.701 C51.900,50.701 51.788,50.681 51.679,50.638 C51.221,50.455 50.998,49.938 51.181,49.483 C51.181,49.483 52.601,45.953 52.601,45.953 C52.601,45.953 50.101,45.953 50.101,45.953 C49.804,45.953 49.527,45.807 49.361,45.563 C49.195,45.318 49.161,45.009 49.271,44.735 C49.271,44.735 51.181,39.987 51.181,39.987 C51.365,39.532 51.885,39.309 52.343,39.492 C52.801,39.675 53.024,40.191 52.841,40.647 C52.841,40.647 51.421,44.176 51.421,44.176 C51.421,44.176 53.921,44.176 53.921,44.176 C54.218,44.176 54.495,44.323 54.661,44.567 C54.827,44.811 54.861,45.121 54.751,45.395 C54.751,45.395 52.841,50.143 52.841,50.143 zM56.786,33.609 C56.293,33.609 55.893,33.211 55.893,32.720 C55.893,32.720 55.893,25.124 55.893,25.124 C55.893,23.519 54.580,22.214 52.966,22.214 C52.966,22.214 51.056,22.214 51.056,22.214 C50.562,22.214 50.162,21.816 50.162,21.326 C50.162,20.835 50.562,20.437 51.056,20.437 C51.056,20.437 52.966,20.437 52.966,20.437 C55.565,20.437 57.680,22.539 57.680,25.124 C57.680,25.124 57.680,32.720 57.680,32.720 C57.680,33.211 57.280,33.609 56.786,33.609 zM28.135,43.227 C28.628,43.227 29.028,43.624 29.028,44.115 C29.028,44.115 29.028,46.015 29.028,46.015 C29.028,47.619 30.341,48.924 31.955,48.924 C31.955,48.924 39.595,48.924 39.595,48.924 C40.089,48.924 40.489,49.322 40.489,49.812 C40.489,50.303 40.089,50.701 39.595,50.701 C39.595,50.701 31.955,50.701 31.955,50.701 C29.356,50.701 27.241,48.599 27.241,46.015 C27.241,46.015 27.241,44.115 27.241,44.115 C27.241,43.624 27.641,43.227 28.135,43.227 z" fill="none" stroke="#FFE401" stroke-width="1"/>
</g>
</svg>